<?xml version="1.0" encoding="UTF-8"?>
<svg xmlns="http://www.w3.org/2000/svg" xmlns:xlink="http://www.w3.org/1999/xlink" width="4029.25pt" height="1897.98pt" viewBox="0 0 4029.25 1897.98" version="1.1">
<defs>
<clipPath id="clip1">
  <path d="M 1351 1461 L 1648 1461 L 1648 1897.980469 L 1351 1897.980469 Z M 1351 1461 "/>
</clipPath>
<clipPath id="clip2">
  <path d="M 3794 1455 L 4029.25 1455 L 4029.25 1897.980469 L 3794 1897.980469 Z M 3794 1455 "/>
</clipPath>
</defs>
<g id="surface1">
<path style=" stroke:none;fill-rule:nonzero;fill:rgb(14.099121%,15.699768%,34.899902%);fill-opacity:1;" d="M 1229.660156 685.839844 C 1229.660156 1064.648438 912.023438 1371.667969 520.183594 1371.667969 L 0 1371.667969 L 0 1032.695313 L 530.695313 1032.695313 L 1011.558594 551.820313 L 254.785156 551.820313 L 170.699219 446.710938 L 60.332031 446.710938 L 0 368.300781 L 0 0 L 520.183594 0 C 1010.929688 0 1229.660156 307.019531 1229.660156 685.839844 "/>
<path style=" stroke:none;fill-rule:nonzero;fill:rgb(37.599182%,69.799805%,27.49939%);fill-opacity:1;" d="M 1837.511719 902.148438 C 1837.511719 902.148438 1813.019531 928.429688 1814.800781 949.449219 C 1816.480469 970.472656 1827 1002.003906 1869.039063 1002.003906 C 1911.078125 1002.003906 2200.128906 1002.003906 2200.128906 1002.003906 C 2200.128906 1002.003906 2187.199219 809.339844 2366.621094 809.339844 C 2545.941406 809.339844 2545.941406 1002.003906 2545.941406 1002.003906 L 2545.941406 1371.667969 L 2025.761719 1371.667969 C 1633.910156 1371.667969 1316.28125 1064.648438 1316.28125 685.839844 C 1316.28125 307.019531 1535 0 2025.761719 0 L 2545.941406 0 L 2545.941406 371.351563 L 2268.449219 371.351563 L 2088.078125 611.421875 L 1865.570313 627.179688 C 1865.570313 627.179688 1837.511719 628.871094 1837.511719 685.839844 C 1837.511719 742.800781 1837.511719 902.148438 1837.511719 902.148438 "/>
<path style=" stroke:none;fill-rule:nonzero;fill:rgb(36.499023%,53.69873%,75.698853%);fill-opacity:1;" d="M 2620.589844 1371.667969 L 3219.710938 0 L 3457.960938 0 L 3948.46875 1266.558594 L 3752.261719 1171.960938 L 3226.71875 642.910156 L 3062.050781 642.910156 L 3181.179688 1171.960938 C 3181.179688 1171.960938 3072.558594 1192.992188 3090.078125 1252.546875 C 3107.601563 1312.101563 3192.558594 1324.367188 3229.351563 1325.683594 C 3229.351563 1325.683594 3287.160156 1371.667969 3253 1371.667969 C 3218.839844 1371.667969 2620.589844 1371.667969 2620.589844 1371.667969 "/>
<path style=" stroke:none;fill-rule:nonzero;fill:rgb(13.699341%,12.199402%,12.5%);fill-opacity:1;" d="M 248.273438 1461.359375 L 395.554688 1891.460938 L 325.167969 1891.460938 L 278.898438 1748.097656 L 153.125 1748.097656 L 107.511719 1891.460938 L 61.242188 1891.460938 L 206.566406 1461.359375 Z M 164.203125 1712.898438 L 267.820313 1712.898438 L 216.339844 1549.335938 Z M 164.203125 1712.898438 "/>
<path style=" stroke:none;fill-rule:nonzero;fill:rgb(13.699341%,12.199402%,12.5%);fill-opacity:1;" d="M 816.523438 1461.359375 C 828.253906 1461.359375 840.636719 1461.585938 853.664063 1462.007813 C 866.703125 1462.445313 879.730469 1463.964844 892.769531 1466.570313 C 905.800781 1469.183594 918.507813 1473.410156 930.890625 1479.28125 C 943.273438 1485.140625 954.890625 1493.515625 965.753906 1504.367188 C 977.488281 1516.097656 986.9375 1529.246094 994.105469 1543.789063 C 1001.269531 1558.359375 1006.808594 1573.015625 1010.71875 1587.785156 C 1014.628906 1602.558594 1017.128906 1616.679688 1018.21875 1630.136719 C 1019.289063 1643.613281 1019.839844 1655.128906 1019.839844 1664.675781 C 1019.839844 1684.660156 1018.101563 1704.761719 1014.628906 1724.960938 C 1011.148438 1745.160156 1005.609375 1764.285156 998.015625 1782.308594 C 990.40625 1800.34375 980.414063 1816.847656 968.039063 1831.835938 C 955.652344 1846.824219 940.769531 1859.3125 923.398438 1869.300781 C 904.710938 1879.730469 885.160156 1886.03125 864.746094 1888.207031 C 844.320313 1890.382813 824.339844 1891.460938 804.789063 1891.460938 L 706.390625 1891.460938 L 706.390625 1461.359375 Z M 771.554688 1499.152344 L 771.554688 1853.667969 L 806.746094 1853.667969 C 816.296875 1853.667969 826.398438 1853.449219 837.046875 1853.011719 C 847.691406 1852.589844 858.230469 1850.734375 868.65625 1847.476563 C 879.082031 1844.214844 889.183594 1838.898438 898.957031 1831.503906 C 908.734375 1824.125 917.210938 1813.367188 924.371094 1799.246094 C 931.542969 1785.140625 937.296875 1767.21875 941.644531 1745.488281 C 945.980469 1723.769531 948.160156 1696.839844 948.160156 1664.675781 C 948.160156 1636.882813 946.308594 1613.519531 942.625 1594.621094 C 938.921875 1575.726563 933.820313 1560.195313 927.308594 1548.03125 C 920.789063 1535.867188 913.296875 1526.425781 904.824219 1519.679688 C 896.351563 1512.949219 887.230469 1508.0625 877.453125 1505.023438 C 867.679688 1501.984375 857.574219 1500.238281 847.152344 1499.808594 C 836.722656 1499.378906 826.511719 1499.152344 816.523438 1499.152344 L 771.554688 1499.152344 "/>
<g clip-path="url(#clip1)" clip-rule="nonzero">
<path style=" stroke:none;fill-rule:nonzero;fill:rgb(13.699341%,12.199402%,12.5%);fill-opacity:1;" d="M 1416.710938 1461.359375 L 1416.710938 1712.488281 C 1416.710938 1740.6875 1417.679688 1762.699219 1419.640625 1778.53125 C 1421.589844 1794.359375 1426.261719 1807.917969 1433.648438 1819.1875 C 1442.339844 1832.636719 1453.421875 1842.40625 1466.890625 1848.472656 C 1480.351563 1854.542969 1494.03125 1857.578125 1507.941406 1857.578125 C 1522.28125 1857.578125 1536.609375 1854.210938 1550.949219 1847.5 C 1565.289063 1840.773438 1576.371094 1830.253906 1584.179688 1815.933594 C 1587.21875 1810.730469 1589.828125 1805.320313 1592.011719 1799.675781 C 1594.179688 1794.039063 1596.019531 1787.316406 1597.539063 1779.507813 C 1599.058594 1771.703125 1600.148438 1762.375 1600.800781 1751.535156 C 1601.449219 1740.6875 1601.78125 1727.464844 1601.78125 1711.84375 L 1601.78125 1461.359375 L 1647.398438 1461.359375 L 1647.398438 1710.292969 C 1647.398438 1715.507813 1647.398438 1723.65625 1647.398438 1734.730469 C 1647.398438 1745.808594 1646.308594 1758.3125 1644.140625 1772.207031 C 1641.960938 1786.117188 1638.171875 1800.457031 1632.738281 1815.21875 C 1627.300781 1829.984375 1618.941406 1843.566406 1607.648438 1855.945313 C 1596.339844 1868.324219 1581.679688 1878.425781 1563.660156 1886.246094 C 1545.628906 1894.066406 1522.929688 1897.980469 1495.558594 1897.980469 C 1489.46875 1897.980469 1480.898438 1897.320313 1469.820313 1896.019531 C 1458.738281 1894.714844 1446.898438 1891.675781 1434.300781 1886.902344 C 1421.699219 1882.121094 1409.308594 1874.742188 1397.160156 1864.742188 C 1384.988281 1854.753906 1374.558594 1841.074219 1365.871094 1823.683594 C 1359.789063 1811.089844 1355.878906 1796.863281 1354.148438 1781.003906 C 1352.410156 1765.148438 1351.539063 1746.136719 1351.539063 1723.988281 L 1351.539063 1461.359375 L 1416.710938 1461.359375 "/>
</g>
<path style=" stroke:none;fill-rule:nonzero;fill:rgb(13.699341%,12.199402%,12.5%);fill-opacity:1;" d="M 2125.078125 1461.359375 L 2272.351563 1891.460938 L 2201.980469 1891.460938 L 2155.699219 1748.097656 L 2029.941406 1748.097656 L 1984.320313 1891.460938 L 1938.050781 1891.460938 L 2083.371094 1461.359375 Z M 2041.011719 1712.898438 L 2144.628906 1712.898438 L 2093.140625 1549.335938 Z M 2041.011719 1712.898438 "/>
<path style=" stroke:none;fill-rule:nonzero;fill:rgb(13.699341%,12.199402%,12.5%);fill-opacity:1;" d="M 2625.550781 1461.359375 L 2832.121094 1780.675781 L 2832.121094 1461.359375 L 2877.738281 1461.359375 L 2877.738281 1891.460938 L 2835.390625 1891.460938 L 2628.808594 1572.140625 L 2628.808594 1891.460938 L 2583.191406 1891.460938 L 2583.191406 1461.359375 L 2625.550781 1461.359375 "/>
<path style=" stroke:none;fill-rule:nonzero;fill:rgb(13.699341%,12.199402%,12.5%);fill-opacity:1;" d="M 3369.761719 1461.359375 L 3517.03125 1891.460938 L 3446.660156 1891.460938 L 3400.390625 1748.097656 L 3274.621094 1748.097656 L 3229 1891.460938 L 3182.730469 1891.460938 L 3328.050781 1461.359375 Z M 3285.691406 1712.898438 L 3389.308594 1712.898438 L 3337.820313 1549.335938 Z M 3285.691406 1712.898438 "/>
<g clip-path="url(#clip2)" clip-rule="nonzero">
<path style=" stroke:none;fill-rule:nonzero;fill:rgb(13.699341%,12.199402%,12.5%);fill-opacity:1;" d="M 3993.410156 1509.578125 C 3982.980469 1505.238281 3972.320313 1501.542969 3961.46875 1498.507813 C 3950.601563 1495.46875 3938.230469 1493.9375 3924.328125 1493.9375 C 3901.289063 1493.9375 3883.601563 1499.59375 3871.21875 1510.886719 C 3858.839844 1522.1875 3852.640625 1536.085938 3852.640625 1552.589844 C 3852.640625 1558.242188 3853.398438 1563.890625 3854.929688 1569.535156 C 3856.441406 1575.179688 3859.261719 1581.050781 3863.398438 1587.128906 C 3867.519531 1593.214844 3873.171875 1599.839844 3880.339844 1607 C 3887.511719 1614.179688 3896.519531 1621.894531 3907.378906 1630.136719 L 3937.359375 1653.601563 C 3951.261719 1664.460938 3963.859375 1674.5625 3975.160156 1683.902344 C 3986.449219 1693.253906 3996.121094 1702.910156 4004.148438 1712.898438 C 4012.191406 1722.898438 4018.378906 1733.542969 4022.730469 1744.835938 C 4027.058594 1756.136719 4029.25 1768.945313 4029.25 1783.285156 C 4029.25 1799.800781 4026.089844 1815 4019.800781 1828.898438 C 4013.5 1842.808594 4004.578125 1854.867188 3993.078125 1865.070313 C 3981.558594 1875.285156 3967.878906 1883.308594 3952.019531 1889.183594 C 3936.160156 1895.042969 3918.679688 1897.980469 3899.570313 1897.980469 C 3873.929688 1897.980469 3852.738281 1894.5 3836.019531 1887.550781 C 3819.300781 1880.609375 3806.148438 1874.515625 3796.601563 1869.300781 L 3813.539063 1834.113281 C 3825.710938 1840.199219 3838.628906 1845.960938 3852.320313 1851.378906 C 3866 1856.820313 3881.539063 1859.527344 3898.910156 1859.527344 C 3911.070313 1859.527344 3921.488281 1857.792969 3930.199219 1854.3125 C 3938.878906 1850.84375 3946.160156 1846.171875 3952.019531 1840.300781 C 3957.890625 1834.441406 3962.21875 1827.820313 3965.058594 1820.429688 C 3967.878906 1813.050781 3969.289063 1805.445313 3969.289063 1797.621094 C 3969.289063 1789.800781 3967.988281 1782.636719 3965.390625 1776.117188 C 3962.78125 1769.601563 3958.96875 1763.082031 3953.980469 1756.566406 C 3948.980469 1750.046875 3942.679688 1743.425781 3935.078125 1736.695313 C 3927.480469 1729.960938 3918.46875 1722.464844 3908.039063 1714.203125 L 3877.410156 1690.09375 C 3866.980469 1682.269531 3856.769531 1674.027344 3846.78125 1665.335938 C 3836.78125 1656.640625 3827.878906 1647.195313 3820.058594 1636.984375 C 3812.238281 1626.78125 3805.941406 1615.703125 3801.160156 1603.746094 C 3796.378906 1591.800781 3794 1578.660156 3794 1564.320313 C 3794 1549.117188 3797.140625 1534.894531 3803.441406 1521.644531 C 3809.730469 1508.390625 3818.640625 1496.875 3830.160156 1487.101563 C 3841.671875 1477.320313 3855.25 1469.613281 3870.890625 1463.964844 C 3886.53125 1458.320313 3903.691406 1455.496094 3922.378906 1455.496094 C 3938.441406 1455.496094 3953.539063 1457.121094 3967.671875 1460.382813 C 3981.78125 1463.636719 3994.710938 1467.878906 4006.441406 1473.089844 L 3993.410156 1509.578125 "/>
</g>
</g>
</svg>
